<svg xmlns="http://www.w3.org/2000/svg" viewBox="0 0 200 200"><defs><clipPath id="a"><path d="M7.5 11.3h185v177.4H7.5z" style="fill:none"/></clipPath><clipPath id="b"><path d="M17.8 11.3h174.4v177.4H17.8z" style="fill:none"/></clipPath><clipPath id="c"><path d="M15.7 18h166v169.8h-166z" style="fill:none"/></clipPath><clipPath id="d"><path d="M7.5 16.4h185v165.8H7.5z" style="fill:none"/></clipPath><clipPath id="e"><path d="M18.9 18.9h165.4v165.9H18.9z" style="fill:none"/></clipPath><clipPath id="f"><path d="M26.4 22.8h155.7v158.6H26.4z" style="fill:none"/></clipPath><clipPath id="g"><path d="M12.5 19.2h166V176h-166z" style="fill:none"/></clipPath><clipPath id="h"><path d="M27 22.8h149.5v156.1H27z" style="fill:none"/></clipPath><clipPath id="i"><path d="M29.4 22.2H181v156.1H29.4z" style="fill:none"/></clipPath><clipPath id="j"><path d="M23 22.7h143.7v150.8H23z" style="fill:none"/></clipPath><clipPath id="k"><path d="M30.6 29.3h138.9v141.1H30.6z" style="fill:none"/></clipPath><clipPath id="l"><path d="M32.5 27.4h142.7v145.1H32.5z" style="fill:none"/></clipPath><clipPath id="m"><path d="M32.6 27H165v138.4H32.6z" style="fill:none"/></clipPath><clipPath id="n"><path d="M23.7 31.2H176v136.5H23.7z" style="fill:none"/></clipPath><clipPath id="o"><path d="M32.5 32.6h137.7v138.1H32.5z" style="fill:none"/></clipPath><clipPath id="p"><path d="M38.2 35.2h131v133.5h-131z" style="fill:none"/></clipPath><clipPath id="q"><path d="M25.7 31.6H167V165H25.7z" style="fill:none"/></clipPath><clipPath id="r"><path d="M37.4 33.9h128.8v134.4H37.4z" style="fill:none"/></clipPath><clipPath id="s"><path d="M38.9 32.7H171v136H38.9z" style="fill:none"/></clipPath><clipPath id="t"><path d="M32.6 32.4h126.8v133H32.6z" style="fill:none"/></clipPath><clipPath id="u"><path d="M38.6 37.5h124.1v126.1H38.6z" style="fill:none"/></clipPath><clipPath id="v"><path d="M39.6 35h129.2v131.4H39.6z" style="fill:none"/></clipPath><clipPath id="w"><path d="M39 33.8h121.5v127.1H39z" style="fill:none"/></clipPath><clipPath id="x"><path d="M36 38.1h126.4v121.7H36z" style="fill:none"/></clipPath></defs><g data-name="レイヤー_1"><g style="clip-path:url(#a)"><g style="clip-path:url(#b)"><path d="M192.2 96.2c.5 10.5-3.8 20.1-7.5 29.2-3.7 9.2-7.2 19-14.1 26.6-6.6 7.2-16.1 11.7-24.9 17.2-8.4 5.3-16.5 11.9-26.1 15.2-9.5 3.3-19.8 3.1-29.7 4.3-7-1.8-16-2.7-24.3-7.3-7.1-4-12.8-11-19.4-16.9-6.3-5.7-13.9-10.6-18.4-17.9-4.4-7.2-5.2-16-6.7-24.7-1.3-7.9-3.6-16.1-1.5-25.1-3.4-8.6-1.1-17.2.9-25.6 2-8.2 3.9-17.1 9.5-24.4 5.2-6.7 13.5-11.1 20.6-16.4 7.1-5.2 13.7-11.8 21.6-15.1 8.5-3.5 17.7-3.3 25.9-3.9 8.9.3 18.1 0 26.6 3.7 8.1 3.4 14.6 10.3 21.8 16 7 5.5 15.2 10.1 21 17 5.8 7 8.8 16 12.9 23.8 4.3 8.2 9.9 16 11.9 24.4" style="fill:#bf7721"/></g><g style="clip-path:url(#c)"><path d="M180.5 98.8c2.5 9 .1 17.6-1.7 26.1-1.8 8.6-3.3 17.7-8.3 25.2-4.9 7.3-12.9 12.2-19.7 17.9-7 5.8-13.4 12.6-21.2 16.1-8.7 3.9-18 3.7-26.1 3.9-9.9-1.1-19.4-.7-27.7-3.4-9.4-3.1-16.7-9.4-24-14.2-8.2-5.4-16.6-10.1-21.9-17.2-5.7-7.6-7.5-17.1-9.8-26-2.3-8.8-5.3-17.8-4.2-27.4-.9-9.3 2.2-17.5 4.1-25.3 2.2-8.7 3.7-17.5 8.7-24.2 5.1-7 13.2-11.1 20.4-15.8S63.2 24 71.5 21.7s17.4-1 25.9-.7c9.7-1.2 19-3.6 27.5-2.3 9.7 1.5 17.6 6.7 25.2 10.9 8.3 4.6 16.9 8.9 22 16.2 5.2 7.4 6.4 16.8 7.7 26.2 1.2 8.5 3.2 17.5.7 27.1" style="fill:#c07924"/></g><g style="clip-path:url(#d)"><path d="M192.5 98c-3.1 8.8-8.8 16.7-12.5 24.7-4 8.5-6.4 17.7-11.6 24.9-5.5 7.5-13.4 12.4-20.8 17.8-7.1 5.2-14.1 11.4-23.4 14.1-8 2.3-17.4 1.2-27.4 1.3-9.7.9-18.7 2.6-26.7.5-8.9-2.3-15.7-8.5-22.7-13.9-6.8-5.3-14.6-10.3-19.7-17.9-4.7-7.1-6.6-16.2-10-24.8-3.1-8-8.1-16-10.2-24.9C8.6 91 13.4 83 17 75s6.3-16.7 11.9-23.5 13.7-11.1 20.7-16.3c7.2-5.3 13.7-11.8 21.7-15 8.4-3.3 17.5-3 26-3.5 8.8-.1 18.2-1 27 1.9 8.4 2.8 15.5 9 23.1 14.2 7.4 5 15.9 9.2 21.9 16s9.1 15.7 13 23.8S191.2 89 192.4 98" style="fill:#c27c26"/></g><g style="clip-path:url(#e)"><path d="M184.3 104.3c.6 8.9-3.2 17.2-6.6 25.3-3.2 7.8-6.2 16.4-12.4 23-5.7 6.1-14.1 9.8-21.8 14.6-7.2 4.5-14.1 10.5-22.5 13.5-8.1 2.9-17 2.8-25.7 4.2-8.4-1-16.8-.9-24.1-4-7.7-3.3-13.4-9.7-19.6-14.8-6.4-5.3-13.7-9.8-18.2-16.5-4.7-6.9-6.1-15.4-8.5-23-2.4-8-5.8-15.7-5.4-23.8-1.8-8.9.2-17.6 1.3-25.8 1.1-8.9 1.6-17.9 5.6-25.3C30.6 44 38 38.8 44.8 33.5c6.7-5.2 13.5-11.2 22.2-13.3 7.9-1.9 16.9 0 26.1 1.2 10.1-1.4 19.5-3.4 27.9-1.6 9.5 2 16.8 8 24.1 13.5 7.2 5.4 15.1 10.7 20.3 18.8 4.8 7.4 6.6 16.9 9.7 26.1 2.9 8.4 7.4 16.9 9 26.4" style="fill:#c37e29"/></g><g style="clip-path:url(#f)"><path d="M182.1 95.8c-.4 10-4 19-6.3 27.7-2.5 9.6-4.2 19.2-9.2 26.8-5.3 7.9-13.6 12.9-21.7 18-7.5 4.7-15.4 10.3-25.4 12.4-8.5 1.7-18.1 0-28.4-.3-7.9.1-16 .8-22.9-2.1-7-3-12-9.3-17.5-14.9-5.2-5.3-11.5-10.3-15-17.5-3.2-6.6-3.4-14.6-5-22.6-1.4-7.2-4.4-14.6-4.2-22.7-.3-8 2.7-15.6 4.3-23.2 1.7-7.9 2.2-16.2 5.8-22.9 3.8-7.1 10.5-11.9 16.3-17s11.6-11 19.4-13.4c7-2.1 15.1-.7 23.7-.1 8.8-.2 17.5-1.6 25.3.2 8.6 1.9 15.6 7.1 22.7 11 7.6 4.2 15.7 7.7 21.1 13.8 5.6 6.3 8 14.7 10.9 22.7 2.8 7.7 6.4 15.6 6.1 24.4" style="fill:#c4802c"/></g><g style="clip-path:url(#g)"><path d="M178.3 102.5c-1.2 7.5-5.7 14.5-9.1 21.9-3.2 7.1-5.4 15.1-10.2 21.4-4.9 6.3-12.1 10.4-18.2 15.1-6.4 4.9-12.2 10.8-19.5 13.3-7.5 2.5-15.7 1.3-23.7.4-7.9 1.2-16.4 2.6-24.4.2-7.6-2.2-14.1-7.8-21.1-12.3-6.9-4.4-14.7-8-20.1-13.9-5.8-6.2-8.7-14.3-12-21.3-3.8-7.9-7.9-15.6-7.4-23.2 2.1-8.9 6.9-16.6 10-24.4 3.4-8.5 5.5-17.3 10.2-24.2 5.1-7.4 12.6-12.4 19.2-17.8 6.7-5.5 13.1-11.8 21.4-15 7.7-2.9 16.7-2.6 25.9-3.4 7.6.2 16.4.2 24.7 3.9 7.3 3.3 13.5 9.7 20.3 15.1 6.5 5.2 14.2 9.7 19.3 16.4 5.1 6.8 7.3 15.3 9.9 23.2 2.6 8 5.9 16.2 4.9 24.7" style="fill:#c6822e"/></g><g style="clip-path:url(#h)"><path d="M175.9 102.1c1.9 7.9-1 16-3.6 24-2.4 7.5-4.6 15.8-9.9 22.4-5 6.3-12.6 10.4-19.4 15.2-6.7 4.8-13.1 10.6-20.7 13.3-7.9 2.7-16.3 1.9-24.4 1.5-7.3-1.4-15.1-1.7-21.9-5.1-6.7-3.3-11.7-9.4-17.4-14.4-5.6-4.9-12.4-9.1-16.6-15.4-4.1-6.2-5.4-13.9-7.7-21.2-2.2-7-5.6-13.9-5.7-21.7-2.6-8.4-1.5-16.3-1.3-23.4.2-8.5.1-16.6 3.6-23.3 3.7-7 10.6-11.5 17-16.4C54 33 60.1 27.4 67.8 24.9c7.3-2.4 15.5-1.6 23.6-2 9.2 0 18.1-1 25.9 1.1 8.8 2.4 15.7 8 22.7 12.6 7.4 4.9 15.2 9.3 20.3 16.2s7 15.7 9.6 24.1c2.5 8 6 16.1 6 25.1" style="fill:#c78531"/></g><g style="clip-path:url(#i)"><path d="M181 101.5c-.7 8.4-5 16.1-8.5 23.7-3.4 7.5-6.2 15.7-11.8 22-5.5 6.3-13.2 10.2-20.1 14.9-6.9 4.8-13.4 10.6-21.1 13.4-8 2.9-16.6 2.5-24.7 2.9-7.6-1.1-15.5-1.2-22.4-4.5s-12-9.4-17.6-14.6c-5.5-5.1-12-9.8-15.8-16.6-3.6-6.5-4.2-14.4-5.8-22.2-1.4-7.1-4.1-14.5-3.6-22.5-1.2-7.4 1.1-14.7 2.3-21.8 1.3-7.3 1.8-15 5.5-21.4 3.6-6.3 10-10.7 15.6-15.6 5.4-4.7 10.5-10.5 17.5-13.5 6.5-2.7 14.1-2.4 21.8-3.2 9.4.4 18.1-.4 25.6 1.9 8.7 2.7 15.3 8.5 22 13.4 7 5.1 14.5 9.8 19.5 16.7 5 6.8 7.2 15.5 10.7 23.5 3.4 7.7 8.3 15.4 10.6 23.7" style="fill:#c98733"/></g><g style="clip-path:url(#j)"><path d="M166.2 100.5c-.1 8.3-3.2 15.7-4.9 22.8-2 8-3 16-7.1 22.3-4.3 6.5-11.2 10.6-17.8 15.1-6.1 4.1-12.2 9.3-20.3 11.5-6.9 1.9-14.9.9-23.4 1.3-7.9 0-15.9.6-23-2.3s-12.5-8.9-18.3-14.2c-5.6-5.1-12.1-9.8-16.2-16.6-3.9-6.5-4.9-14.5-7-22.1-2-7.3-5.2-14.8-5.2-22.7 1.8-7.2 6.5-14 9.9-21.2 3.3-6.9 5.5-14.7 10.2-20.9s11.6-10.3 17.6-15.1c6.1-4.8 11.7-10.7 19-13.4 7-2.6 14.9-2.1 23-2.1 7.3 1.4 15 1.6 21.8 4.7s12.1 8.9 17.8 13.7c5.8 4.8 12.4 9.1 16.3 15.4 3.8 6.3 4.5 14 5.8 21.6 1.2 6.9 3.2 14.3 1.7 22.2" style="fill:#ca8936"/></g><g style="clip-path:url(#k)"><path d="M168.5 97.4c2 8 .4 15.5-.5 22.5-1 7.9-1.6 15.7-5.4 21.9-4 6.5-10.8 10.6-16.9 15s-12.2 9.5-19.5 11.5c-7.3 1.9-15.2.5-22.7-.2-8.4 1-16.2 3.1-23.1 2.2-8.4-1-15-5.3-21.3-8.6-7.1-3.8-14.2-7.4-18.4-13.6-4.3-6.1-5.2-14.1-6.6-22-1.3-7.1-3.5-14.6-2.4-22.7-2.2-8.2-.5-16 .6-23.4 1.2-8 2.2-16.1 6.5-22.7s11.4-10.8 18-15.4c6.4-4.4 12.8-9.7 20.6-11.7 7.5-1.9 15.7-.5 23.8.2 7.9-.5 15.3-2 21.8-.4 7.4 1.8 13.1 6.8 18.6 10.9 5.8 4.3 12.1 8.3 15.9 14.6 3.6 6 4.3 13.5 6.2 20.8 1.7 6.7 4.7 13.5 4.9 21" style="fill:#cb8b39"/></g><g style="clip-path:url(#l)"><path d="M175.2 96.8c.4 8.6-3.1 16.4-6.2 23.9-3 7.5-5.9 15.6-11.6 21.8-5.4 5.9-13.2 9.6-20.4 14-6.9 4.3-13.5 9.7-21.4 12.4-7.8 2.7-16.2 2.6-24.3 3.5-5.8-1.5-13.1-2.2-19.9-6-5.8-3.2-10.5-9-15.9-13.8-5.1-4.6-11.4-8.7-15-14.7-3.6-5.9-4.3-13.1-5.4-20.2-1.1-6.5-3-13.2-1.2-20.6-2.8-7.1-.9-14.1.7-21 1.6-6.7 3.2-14 7.8-19.9 4.3-5.5 11-9.1 16.9-13.4 5.8-4.3 11.2-9.7 17.6-12.4 7-2.9 14.5-2.7 21.2-3.2 7.3.3 14.8 0 21.8 3 6.6 2.8 11.9 8.4 17.8 13.1 5.7 4.5 12.5 8.2 17.2 13.9s7.2 13.1 10.5 19.5c3.5 6.7 8.1 13.1 9.7 20" style="fill:#cd8e3b"/></g><g style="clip-path:url(#m)"><path d="M164.9 96.8c-.2 7.3-3.4 14-5.6 20.7-2.2 6.9-3.6 14.2-7.5 20-4.1 6-10.4 10-15.8 14.4-5.6 4.6-11 9.9-17.6 12.1-6.7 2.3-14.1 1.3-21.3.7-7.1 0-14.4 1.1-21-.8-6.9-1.9-12.5-6.6-18.3-10.3-6.1-3.8-12.7-7.1-16.8-12.5-4.3-5.6-5.4-12.8-6.7-19.8-1.2-6.5-2.8-13.3-.6-20.6-1.9-7.5-.3-14.6.4-21.3.8-7.4 1.2-14.9 4.5-21.1 3.5-6.3 9.7-10.7 15.1-15.4S64.3 32.7 71 30c6.6-2.8 14.1-2.6 21.2-3.2 7.9 1.3 15.4 1 21.8 3.2 7.7 2.6 13.4 7.5 19.1 11.2 6.6 4.3 13.2 7.8 17.5 13.5 4.4 5.9 5.8 13.3 8.1 20.6 2.1 6.7 5.5 13.6 6.2 21.3" style="fill:#ce903e"/></g><g style="clip-path:url(#n)"><path d="M176 98.3c-2.6 7.2-7.2 13.7-10.3 20.4-3.3 7-5.2 14.6-9.5 20.5-4.5 6.2-11.1 10.2-17.1 14.6-5.8 4.3-11.6 9.4-19.3 11.6-6.6 1.9-14.3 1-22.6 1.1-8 .7-15.4 2.1-22 .4-7.3-1.9-12.9-7-18.7-11.4-5.6-4.4-12-8.5-16.2-14.8-3.9-5.8-5.5-13.3-8.2-20.4-2.6-6.6-6.7-13.2-8.4-20.5.9-7.2 4.9-13.8 7.9-20.4s5.2-13.8 9.8-19.4 11.3-9.2 17-13.4c5.9-4.4 11.3-9.7 17.9-12.3 6.9-2.8 14.4-2.5 21.4-2.9 7.3-.1 15-.8 22.2 1.6 6.9 2.3 12.8 7.4 19.1 11.7 6.1 4.1 13.1 7.6 18.1 13.2 4.9 5.6 7.5 12.9 10.7 19.6s7.3 13.5 8.3 20.9" style="fill:#cf903e"/></g><g style="clip-path:url(#o)"><path d="M170.1 103.7c.5 7.4-2.7 14.3-5.5 21-2.7 6.5-5.1 13.6-10.3 19.1-4.8 5.1-11.7 8.2-18.1 12.1-6 3.7-11.7 8.7-18.7 11.2-6.7 2.4-14.2 2.4-21.4 3.5-7-.8-13.9-.7-20-3.4-6.4-2.7-11.2-8.1-16.3-12.3-5.3-4.4-11.4-8.2-15.1-13.7-3.9-5.7-5.1-12.8-7-19.2-2-6.6-4.9-13.1-4.5-19.8-1.5-7.4.2-14.6 1.1-21.5.9-7.4 1.3-14.9 4.6-21.1 3.5-6.4 9.6-10.7 15.3-15.2 5.6-4.3 11.2-9.3 18.5-11.1 6.6-1.6 14 0 21.7 1 8.4-1.1 16.3-2.8 23.2-1.4 7.9 1.7 14 6.7 20.1 11.2 6 4.5 12.6 8.9 16.9 15.6 4 6.2 5.5 14.1 8.1 21.7 2.4 7 6.2 14.1 7.5 22" style="fill:#cf903f"/></g><g style="clip-path:url(#p)"><path d="M169.2 96.7c-.3 8.4-3.3 16-5.3 23.3-2.1 8.1-3.5 16.2-7.8 22.5-4.4 6.6-11.4 10.8-18.3 15.2-6.3 4-12.9 8.7-21.4 10.4-7.1 1.4-15.2 0-23.9-.3-6.7.1-13.4.7-19.3-1.8s-10.1-7.8-14.8-12.6c-4.4-4.4-9.7-8.6-12.6-14.7-2.7-5.5-2.9-12.3-4.2-19-1.2-6-3.7-12.3-3.5-19.1-.2-6.7 2.3-13.2 3.6-19.5 1.4-6.6 1.8-13.6 4.9-19.3 3.2-5.9 8.8-10 13.7-14.3s9.7-9.3 16.3-11.3c5.9-1.8 12.7-.6 19.9 0 7.4-.1 14.7-1.4 21.3.1 7.2 1.6 13.1 6 19.1 9.3 6.4 3.5 13.2 6.4 17.8 11.6 4.8 5.3 6.8 12.4 9.2 19.1 2.3 6.5 5.4 13.2 5.2 20.5" style="fill:#d0913f"/></g><g style="clip-path:url(#q)"><path d="M166.8 102.4c-1 6.4-4.9 12.3-7.7 18.6-2.7 6-4.6 12.9-8.7 18.2-4.1 5.4-10.3 8.8-15.5 12.9-5.4 4.2-10.4 9.2-16.6 11.3-6.3 2.1-13.3 1.1-20.1.3-6.7 1-13.9 2.2-20.8.2-6.5-1.9-12-6.7-18-10.5-5.8-3.8-12.5-6.8-17.1-11.8-4.9-5.3-7.4-12.2-10.2-18.1-3.2-6.7-6.7-13.3-6.3-19.8 1.8-7.6 5.9-14.1 8.5-20.7 2.9-7.2 4.6-14.7 8.6-20.6 4.3-6.3 10.7-10.5 16.3-15.2 5.7-4.7 11.1-10.1 18.2-12.8 6.6-2.5 14.2-2.2 22.1-2.9 6.4.2 13.9.1 21.1 3.3 6.2 2.8 11.5 8.3 17.3 12.9 5.6 4.4 12.1 8.2 16.4 13.9 4.4 5.8 6.2 13.1 8.4 19.7 2.2 6.8 5 13.8 4.1 21" style="fill:#d1913f"/></g><g style="clip-path:url(#r)"><path d="M165.7 102.2c1.6 6.8-.9 13.8-3.1 20.7-2.1 6.4-3.9 13.6-8.5 19.3-4.3 5.4-10.9 8.9-16.7 13.1-5.8 4.1-11.2 9.2-17.8 11.4-6.8 2.3-14.1 1.6-21 1.3-6.3-1.2-13-1.5-18.9-4.4-5.7-2.9-10.1-8.1-15-12.4-4.8-4.2-10.6-7.8-14.3-13.2-3.6-5.3-4.7-12-6.7-18.3-1.9-6-4.8-11.9-4.9-18.7-2.2-7.2-1.2-14-1.1-20.2.2-7.3.1-14.3 3.1-20.1 3.1-6 9.1-9.9 14.6-14.1 5.2-4 10.5-8.8 17.2-10.9 6.3-2 13.3-1.3 20.3-1.7 7.9 0 15.5-.9 22.3 1 7.5 2.1 13.5 6.9 19.5 10.8 6.3 4.2 13.1 8 17.4 13.9 4.4 5.9 6 13.5 8.3 20.7 2.1 6.9 5.1 13.9 5.1 21.6" style="fill:#d2913f"/></g><g style="clip-path:url(#s)"><path d="M171 101.8c-.6 7.3-4.4 14-7.4 20.6s-5.4 13.7-10.2 19.2-11.5 8.9-17.5 13c-6.1 4.2-11.7 9.2-18.4 11.7-7 2.6-14.5 2.2-21.5 2.5-6.6-.9-13.5-1-19.5-3.9-6-2.8-10.5-8.2-15.4-12.8-4.8-4.5-10.5-8.5-13.7-14.5-3.1-5.6-3.7-12.5-5.1-19.3-1.3-6.2-3.6-12.6-3.1-19.6-1.1-6.5.9-12.8 2-19 1.1-6.3 1.6-13.1 4.8-18.7 3.1-5.5 8.7-9.3 13.6-13.6 4.7-4.1 9.2-9.2 15.3-11.7 5.7-2.4 12.3-2.1 19-2.8 8.2.3 15.8-.3 22.3 1.7 7.6 2.3 13.4 7.4 19.1 11.6 6.1 4.5 12.6 8.5 17 14.6 4.3 5.9 6.3 13.5 9.3 20.5 2.9 6.7 7.2 13.4 9.3 20.7" style="fill:#d29140"/></g><g style="clip-path:url(#t)"><path d="M158.9 101c-.1 7.3-2.8 13.8-4.4 20.1-1.7 7-2.7 14.1-6.3 19.7-3.8 5.8-9.9 9.4-15.7 13.3-5.4 3.6-10.8 8.2-17.9 10.1-6.1 1.7-13.2.8-20.6 1.2-7 0-14 .5-20.3-2.1-6.2-2.6-11-7.9-16.1-12.5-4.9-4.5-10.7-8.7-14.3-14.6-3.4-5.7-4.4-12.8-6.2-19.5-1.8-6.4-4.6-13.1-4.6-20 1.6-6.3 5.7-12.3 8.8-18.7 2.9-6.1 4.9-13 9-18.4 4.2-5.4 10.3-9.1 15.6-13.4s10.3-9.4 16.7-11.8c6.2-2.3 13.2-1.8 20.3-1.8 6.4 1.2 13.3 1.4 19.3 4.2s10.7 7.9 15.7 12.1c5.1 4.3 10.9 8 14.3 13.6 3.4 5.5 4 12.4 5.1 19.1 1 6.1 2.9 12.6 1.5 19.6" style="fill:#d39140"/></g><g style="clip-path:url(#u)"><path d="M161.8 98.3c1.8 7.1.3 13.9-.4 20.1-.9 7-1.4 14-4.9 19.6-3.5 5.8-9.6 9.5-15.1 13.4s-10.9 8.5-17.4 10.3c-6.5 1.7-13.6.5-20.3-.2-7.5.9-14.4 2.7-20.6 2-7.5-.9-13.4-4.8-19-7.7-6.3-3.4-12.7-6.6-16.5-12.1s-4.6-12.6-5.9-19.6c-1.1-6.4-3.1-13-2.1-20.2-2-7.3-.5-14.3.5-20.9 1.1-7.1 2-14.4 5.8-20.3S56.1 53 62 49c5.7-4 11.4-8.6 18.4-10.4 6.7-1.7 14-.5 21.2.2 7-.5 13.7-1.8 19.5-.4 6.6 1.6 11.7 6.1 16.6 9.8 5.2 3.8 10.8 7.4 14.2 13.1 3.2 5.3 3.9 12.1 5.5 18.6 1.5 6 4.2 12.1 4.4 18.8" style="fill:#d49140"/></g><g style="clip-path:url(#v)"><path d="M168.8 97.9c.3 7.8-2.8 14.9-5.6 21.6-2.8 6.8-5.3 14.1-10.5 19.7-4.9 5.4-12 8.7-18.4 12.7-6.2 3.9-12.2 8.8-19.4 11.3-7.1 2.4-14.7 2.3-22 3.2-5.2-1.3-11.8-2-18-5.4-5.3-2.9-9.5-8.1-14.4-12.5-4.7-4.2-10.3-7.9-13.6-13.3-3.2-5.3-3.9-11.9-4.9-18.3-1-5.9-2.7-11.9-1.1-18.6-2.5-6.4-.8-12.7.7-19 1.5-6.1 2.9-12.7 7.1-18.1 3.9-5 10-8.2 15.3-12.1s10.1-8.8 16-11.2c6.3-2.6 13.1-2.5 19.2-2.9 6.6.3 13.4 0 19.7 2.7 6 2.5 10.8 7.6 16.2 11.8 5.2 4.1 11.3 7.5 15.6 12.6 4.3 5.2 6.5 11.8 9.5 17.6 3.2 6.1 7.4 11.9 8.8 18.1" style="fill:#d59240"/></g><g style="clip-path:url(#w)"><path d="M160.4 97.9c-.2 6.7-3.1 12.9-5.1 19-2 6.3-3.3 13-6.9 18.4-3.7 5.5-9.5 9.2-14.5 13.2-5.2 4.2-10.1 9.1-16.1 11.1-6.2 2.1-13 1.2-19.6.6-6.5 0-13.2 1-19.3-.7-6.3-1.8-11.5-6.1-16.8-9.4-5.6-3.5-11.7-6.5-15.4-11.5-3.9-5.2-5-11.8-6.1-18.1-1.1-6-2.6-12.2-.5-18.9-1.7-6.9-.3-13.4.3-19.5.7-6.8 1.1-13.7 4.2-19.3 3.2-5.8 8.9-9.8 13.9-14.1s9.7-9.3 15.9-11.9c6.1-2.5 12.9-2.3 19.5-2.9 7.3 1.2 14.2 1 20 2.9 7 2.3 12.3 6.9 17.5 10.3 6 3.9 12.1 7.2 16 12.4 4 5.4 5.3 12.2 7.5 18.9 2 6.1 5 12.5 5.7 19.5" style="fill:#d59241"/></g><g style="clip-path:url(#x)"><path d="M161.9 99.1c.4 7.5-2.1 14.1-3.9 20.3-2 6.9-3.7 13.9-8 19.2-4.4 5.3-10.9 8.3-17.2 11.7-5.8 3.2-11.8 7.3-18.9 8.8-6.5 1.4-13.6.2-20.9 0-5.6 0-11.8.5-17.4-1.8-5.2-2.1-9.3-6.8-14-10.5-4.4-3.6-9.8-6.6-13.3-11.4-3.4-4.7-4.6-10.7-6.7-16.2-2-5.4-5.1-10.7-5.6-16.7.1-7.3 2.8-14.1 4.3-20.4 1.7-7.1 2.6-14.3 6.1-19.9 3.7-6.1 9.7-10 15.4-13.9 5.5-3.8 11.1-8.2 18.4-9.7 6.3-1.3 13.3.2 20.9.9 5.9-.4 12.7-1.1 19.1 1.2 5.8 2.1 10.7 6.8 16 10.6 5.2 3.7 11.2 6.8 15.2 11.7 4.2 5.1 5.8 11.6 7.8 17.4 2 6.2 4.4 12.3 2.9 18.6" style="fill:#d69241"/></g></g><path d="M155.4 53.7c-3.7 5.3-11.7 6.1-17.9 1.8s-8.1-12.1-4.4-17.4 11.7-6.1 17.9-1.8 8.1 12.1 4.4 17.4" style="fill:#51310e"/><path d="M152.8 50c-3 4.2-9.4 4.9-14.3 1.4s-6.5-9.7-3.5-14c3-4.2 9.4-4.9 14.3-1.4s6.5 9.7 3.5 14" style="fill:#56320f"/><path d="M151 48.7c-2.4 3.4-7.5 3.9-11.5 1.1-3.9-2.8-5.2-7.8-2.8-11.2s7.5-3.9 11.5-1.1 5.2 7.8 2.8 11.2" style="fill:#6d3c17"/><path d="M68 76.4c5.5 3.4 6.8 11.3 2.9 17.8-3.9 6.4-11.6 8.9-17.1 5.5S47 88.4 50.9 81.9c3.9-6.4 11.6-8.9 17.1-5.5" style="fill:#51310e"/><path d="M64.5 79.3c4.4 2.7 5.5 9.1 2.3 14.2-3.1 5.1-9.3 7.1-13.7 4.4s-5.5-9.1-2.3-14.2c3.1-5.1 9.3-7.1 13.7-4.4" style="fill:#56320f"/><path d="M63.3 81.1c3.5 2.2 4.4 7.2 1.9 11.4-2.5 4.1-7.4 5.7-11 3.5-3.5-2.2-4.4-7.2-1.9-11.4 2.5-4.1 7.4-5.7 11-3.5" style="fill:#6d3c17"/><path d="M173.2 108.4c6.5 0 11.7 6.1 11.7 13.7 0 7.5-5.3 13.6-11.8 13.6s-11.7-6.1-11.7-13.7c0-7.5 5.3-13.6 11.8-13.6" style="fill:#51310e"/><path d="M171.7 112.7c5.2 0 9.4 4.9 9.4 10.9s-4.2 10.9-9.4 10.9-9.4-4.9-9.4-10.9 4.2-10.9 9.4-10.9" style="fill:#56320f"/><path d="M171.7 114.9c4.2 0 7.5 3.9 7.5 8.7s-3.4 8.7-7.5 8.7c-4.2 0-7.5-3.9-7.5-8.7s3.4-8.7 7.5-8.7" style="fill:#6d3c17"/><path d="M34.4 134.8c-3.1 4.4-9.8 5.1-15 1.5s-6.8-10.2-3.7-14.6 9.8-5.1 15-1.5 6.8 10.2 3.7 14.6" style="fill:#51310e"/><path d="M32.2 131.7c-2.5 3.6-7.9 4.1-12 1.2s-5.5-8.1-3-11.7 7.9-4.1 12-1.2 5.5 8.1 3 11.7" style="fill:#56320f"/><path d="M30.7 130.7c-2 2.8-6.3 3.3-9.6.9-3.3-2.3-4.4-6.5-2.4-9.4 2-2.8 6.3-3.3 9.6-.9 3.3 2.3 4.4 6.5 2.4 9.4" style="fill:#6d3c17"/><path d="M133.3 117.9c3 4.8.8 11.6-4.8 15-5.6 3.5-12.6 2.3-15.6-2.5s-.8-11.6 4.8-15c5.6-3.5 12.6-2.3 15.6 2.5" style="fill:#51310e"/><path d="M129.4 118.7c2.4 3.9.7 9.3-3.8 12-4.5 2.8-10.1 1.9-12.5-2s-.7-9.3 3.8-12c4.5-2.8 10.1-1.9 12.5 2" style="fill:#56320f"/><path d="M127.8 119.7c1.9 3.1.5 7.4-3.1 9.6s-8.1 1.5-10-1.6-.5-7.4 3.1-9.6 8.1-1.5 10 1.6" style="fill:#6d3c17"/><path d="M78.4 174.8c-3.7 5.3-11.7 6.1-17.9 1.8s-8.1-12.1-4.4-17.4 11.7-6.1 17.9-1.8 8.1 12.1 4.4 17.4" style="fill:#51310e"/><path d="M75.8 171.1c-3 4.2-9.4 4.9-14.3 1.4s-6.5-9.7-3.5-14c3-4.2 9.4-4.9 14.3-1.4s6.5 9.7 3.5 14" style="fill:#56320f"/><path d="M74 169.8c-2.4 3.4-7.5 3.9-11.5 1.1s-5.2-7.8-2.8-11.2 7.5-3.9 11.5-1.1c3.9 2.8 5.2 7.8 2.8 11.2" style="fill:#6d3c17"/><path d="M71.5 33.4c0 6.5-6.1 11.7-13.6 11.7s-13.6-5.3-13.6-11.7 6.1-11.7 13.6-11.7S71.5 27 71.5 33.4" style="fill:#51310e"/><path d="M67.3 31.9c0 5.2-4.9 9.4-10.9 9.4s-10.9-4.2-10.9-9.4 4.9-9.4 10.9-9.4 10.9 4.2 10.9 9.4" style="fill:#56320f"/><path d="M65.1 31.9c0 4.2-3.9 7.5-8.7 7.5s-8.7-3.4-8.7-7.5 3.9-7.5 8.7-7.5 8.7 3.4 8.7 7.5" style="fill:#6d3c17"/><path d="M118.8 41.4c1.9 3.7 0 8.5-4.3 10.8s-9.4 1.1-11.3-2.6 0-8.5 4.3-10.8c4.3-2.2 9.4-1.1 11.3 2.6" style="fill:#51310e"/><path d="M115.9 41.8c1.5 3 0 6.8-3.4 8.6s-7.5.9-9-2.1 0-6.8 3.4-8.6 7.5-.8 9 2.1" style="fill:#56320f"/><path d="M114.6 42.5c1.2 2.4 0 5.5-2.8 6.9s-6 .7-7.2-1.7 0-5.5 2.8-6.9 6-.7 7.2 1.7" style="fill:#6d3c17"/><path d="M119.8 153.4c-1.7 3.8-6.7 5.3-11.2 3.2-4.4-2-6.6-6.7-4.9-10.6 1.7-3.8 6.7-5.3 11.2-3.2 4.4 2 6.6 6.7 4.9 10.6" style="fill:#51310e"/><path d="M117.7 151.4c-1.4 3-5.4 4.2-8.9 2.6s-5.3-5.4-3.9-8.4 5.4-4.2 8.9-2.6 5.3 5.4 3.9 8.4" style="fill:#56320f"/><path d="M116.5 150.8c-1.1 2.4-4.3 3.4-7.1 2.1s-4.2-4.3-3.1-6.8c1.1-2.4 4.3-3.4 7.1-2.1s4.2 4.3 3.1 6.8" style="fill:#6d3c17"/></g></svg>